<svg width="24" height="24" viewBox="0 0 24 24" fill="none" xmlns="http://www.w3.org/2000/svg">
<path d="M6.99997 18.3074L12 16.1574L17 18.3074V5.66512C17 5.58819 16.9679 5.51766 16.9038 5.45355C16.8397 5.38945 16.7692 5.3574 16.6922 5.3574H7.3077C7.23077 5.3574 7.16024 5.38945 7.09613 5.45355C7.03202 5.51766 6.99997 5.58819 6.99997 5.66512V18.3074ZM6.76537 20.065C6.46411 20.192 6.1779 20.1676 5.90675 19.992C5.63558 19.8163 5.5 19.5612 5.5 19.2266V5.66512C5.5 5.15999 5.675 4.73242 6.025 4.38242C6.375 4.03242 6.80257 3.85742 7.3077 3.85742H16.6922C17.1974 3.85742 17.625 4.03242 17.975 4.38242C18.325 4.73242 18.5 5.15999 18.5 5.66512V19.2266C18.5 19.5612 18.3644 19.8163 18.0932 19.992C17.8221 20.1676 17.5358 20.192 17.2346 20.065L12 17.8189L6.76537 20.065Z" fill="#00242C"/>
</svg>
