<svg width="304" height="304" viewBox="0 0 304 304" fill="none" xmlns="http://www.w3.org/2000/svg">
    <circle cx="142" cy="162" r="2" fill="white"/>
    <circle cx="142" cy="142" r="2" fill="white"/>
    <circle cx="142" cy="62" r="2" fill="white"/>
    <circle cx="142" cy="242" r="2" fill="white"/>
    <circle cx="142" cy="22" r="2" fill="white"/>
    <circle cx="142" cy="202" r="2" fill="white"/>
    <circle cx="142" cy="102" r="2" fill="white"/>
    <circle cx="142" cy="282" r="2" fill="white"/>
    <circle cx="302" cy="162" r="2" fill="white"/>
    <circle cx="122" cy="162" r="2" fill="white"/>
    <circle cx="302" cy="142" r="2" fill="white"/>
    <circle cx="122" cy="142" r="2" fill="white"/>
    <circle cx="302" cy="62" r="2" fill="white"/>
    <circle cx="122" cy="62" r="2" fill="white"/>
    <circle cx="302" cy="242" r="2" fill="white"/>
    <circle cx="122" cy="242" r="2" fill="white"/>
    <circle cx="302" cy="22" r="2" fill="white"/>
    <circle cx="122" cy="22" r="2" fill="white"/>
    <circle cx="302" cy="202" r="2" fill="white"/>
    <circle cx="122" cy="202" r="2" fill="white"/>
    <circle cx="302" cy="102" r="2" fill="white"/>
    <circle cx="122" cy="102" r="2" fill="white"/>
    <circle cx="302" cy="282" r="2" fill="white"/>
    <circle cx="122" cy="282" r="2" fill="white"/>
    <circle cx="222" cy="162" r="2" fill="white"/>
    <circle cx="42" cy="162" r="2" fill="white"/>
    <circle cx="222" cy="142" r="2" fill="white"/>
    <circle cx="42" cy="142" r="2" fill="white"/>
    <circle cx="222" cy="62" r="2" fill="white"/>
    <circle cx="42" cy="62" r="2" fill="white"/>
    <circle cx="222" cy="242" r="2" fill="white"/>
    <circle cx="42" cy="242" r="2" fill="white"/>
    <circle cx="222" cy="22" r="2" fill="white"/>
    <circle cx="42" cy="22" r="2" fill="white"/>
    <circle cx="222" cy="202" r="2" fill="white"/>
    <circle cx="42" cy="202" r="2" fill="white"/>
    <circle cx="222" cy="102" r="2" fill="white"/>
    <circle cx="42" cy="102" r="2" fill="white"/>
    <circle cx="222" cy="282" r="2" fill="white"/>
    <circle cx="42" cy="282" r="2" fill="white"/>
    <circle cx="142" cy="2" r="2" fill="white"/>
    <circle cx="142" cy="182" r="2" fill="white"/>
    <circle cx="142" cy="82" r="2" fill="white"/>
    <circle cx="142" cy="262" r="2" fill="white"/>
    <circle cx="142" cy="42" r="2" fill="white"/>
    <circle cx="142" cy="222" r="2" fill="white"/>
    <circle cx="142" cy="122" r="2" fill="white"/>
    <circle cx="142" cy="302" r="2" fill="white"/>
    <circle cx="302" cy="2" r="2" fill="white"/>
    <circle cx="122" cy="2" r="2" fill="white"/>
    <circle cx="302" cy="182" r="2" fill="white"/>
    <circle cx="122" cy="182" r="2" fill="white"/>
    <circle cx="302" cy="82" r="2" fill="white"/>
    <circle cx="122" cy="82" r="2" fill="white"/>
    <circle cx="302" cy="262" r="2" fill="white"/>
    <circle cx="122" cy="262" r="2" fill="white"/>
    <circle cx="302" cy="42" r="2" fill="white"/>
    <circle cx="122" cy="42" r="2" fill="white"/>
    <circle cx="302" cy="222" r="2" fill="white"/>
    <circle cx="122" cy="222" r="2" fill="white"/>
    <circle cx="302" cy="122" r="2" fill="white"/>
    <circle cx="122" cy="122" r="2" fill="white"/>
    <circle cx="302" cy="302" r="2" fill="white"/>
    <circle cx="122" cy="302" r="2" fill="white"/>
    <circle cx="222" cy="2" r="2" fill="white"/>
    <circle cx="42" cy="2" r="2" fill="white"/>
    <circle cx="222" cy="182" r="2" fill="white"/>
    <circle cx="42" cy="182" r="2" fill="white"/>
    <circle cx="222" cy="82" r="2" fill="white"/>
    <circle cx="42" cy="82" r="2" fill="white"/>
    <circle cx="222" cy="262" r="2" fill="white"/>
    <circle cx="42" cy="262" r="2" fill="white"/>
    <circle cx="222" cy="42" r="2" fill="white"/>
    <circle cx="42" cy="42" r="2" fill="white"/>
    <circle cx="222" cy="222" r="2" fill="white"/>
    <circle cx="42" cy="222" r="2" fill="white"/>
    <circle cx="222" cy="122" r="2" fill="white"/>
    <circle cx="42" cy="122" r="2" fill="white"/>
    <circle cx="222" cy="302" r="2" fill="white"/>
    <circle cx="42" cy="302" r="2" fill="white"/>
    <circle cx="162" cy="162" r="2" fill="white"/>
    <circle cx="162" cy="142" r="2" fill="white"/>
    <circle cx="162" cy="62" r="2" fill="white"/>
    <circle cx="162" cy="242" r="2" fill="white"/>
    <circle cx="162" cy="22" r="2" fill="white"/>
    <circle cx="162" cy="202" r="2" fill="white"/>
    <circle cx="162" cy="102" r="2" fill="white"/>
    <circle cx="162" cy="282" r="2" fill="white"/>
    <circle cx="242" cy="162" r="2" fill="white"/>
    <circle cx="62" cy="162" r="2" fill="white"/>
    <circle cx="242" cy="142" r="2" fill="white"/>
    <circle cx="62" cy="142" r="2" fill="white"/>
    <circle cx="242" cy="62" r="2" fill="white"/>
    <circle cx="62" cy="62" r="2" fill="white"/>
    <circle cx="242" cy="242" r="2" fill="white"/>
    <circle cx="62" cy="242" r="2" fill="white"/>
    <circle cx="242" cy="22" r="2" fill="white"/>
    <circle cx="62" cy="22" r="2" fill="white"/>
    <circle cx="242" cy="202" r="2" fill="white"/>
    <circle cx="62" cy="202" r="2" fill="white"/>
    <circle cx="242" cy="102" r="2" fill="white"/>
    <circle cx="62" cy="102" r="2" fill="white"/>
    <circle cx="242" cy="282" r="2" fill="white"/>
    <circle cx="62" cy="282" r="2" fill="white"/>
    <circle cx="162" cy="2" r="2" fill="white"/>
    <circle cx="162" cy="182" r="2" fill="white"/>
    <circle cx="162" cy="82" r="2" fill="white"/>
    <circle cx="162" cy="262" r="2" fill="white"/>
    <circle cx="162" cy="42" r="2" fill="white"/>
    <circle cx="162" cy="222" r="2" fill="white"/>
    <circle cx="162" cy="122" r="2" fill="white"/>
    <circle cx="162" cy="302" r="2" fill="white"/>
    <circle cx="242" cy="2" r="2" fill="white"/>
    <circle cx="62" cy="2" r="2" fill="white"/>
    <circle cx="242" cy="182" r="2" fill="white"/>
    <circle cx="62" cy="182" r="2" fill="white"/>
    <circle cx="242" cy="82" r="2" fill="white"/>
    <circle cx="62" cy="82" r="2" fill="white"/>
    <circle cx="242" cy="262" r="2" fill="white"/>
    <circle cx="62" cy="262" r="2" fill="white"/>
    <circle cx="242" cy="42" r="2" fill="white"/>
    <circle cx="62" cy="42" r="2" fill="white"/>
    <circle cx="242" cy="222" r="2" fill="white"/>
    <circle cx="62" cy="222" r="2" fill="white"/>
    <circle cx="242" cy="122" r="2" fill="white"/>
    <circle cx="62" cy="122" r="2" fill="white"/>
    <circle cx="242" cy="302" r="2" fill="white"/>
    <circle cx="62" cy="302" r="2" fill="white"/>
    <circle cx="182" cy="162" r="2" fill="white"/>
    <circle cx="2" cy="162" r="2" fill="white"/>
    <circle cx="182" cy="142" r="2" fill="white"/>
    <circle cx="2" cy="142" r="2" fill="white"/>
    <circle cx="182" cy="62" r="2" fill="white"/>
    <circle cx="2" cy="62" r="2" fill="white"/>
    <circle cx="182" cy="242" r="2" fill="white"/>
    <circle cx="2" cy="242" r="2" fill="white"/>
    <circle cx="182" cy="22" r="2" fill="white"/>
    <circle cx="2" cy="22" r="2" fill="white"/>
    <circle cx="182" cy="202" r="2" fill="white"/>
    <circle cx="2" cy="202" r="2" fill="white"/>
    <circle cx="182" cy="102" r="2" fill="white"/>
    <circle cx="2" cy="102" r="2" fill="white"/>
    <circle cx="182" cy="282" r="2" fill="white"/>
    <circle cx="2" cy="282" r="2" fill="white"/>
    <circle cx="262" cy="162" r="2" fill="white"/>
    <circle cx="82" cy="162" r="2" fill="white"/>
    <circle cx="262" cy="142" r="2" fill="white"/>
    <circle cx="82" cy="142" r="2" fill="white"/>
    <circle cx="262" cy="62" r="2" fill="white"/>
    <circle cx="82" cy="62" r="2" fill="white"/>
    <circle cx="262" cy="242" r="2" fill="white"/>
    <circle cx="82" cy="242" r="2" fill="white"/>
    <circle cx="262" cy="22" r="2" fill="white"/>
    <circle cx="82" cy="22" r="2" fill="white"/>
    <circle cx="262" cy="202" r="2" fill="white"/>
    <circle cx="82" cy="202" r="2" fill="white"/>
    <circle cx="262" cy="102" r="2" fill="white"/>
    <circle cx="82" cy="102" r="2" fill="white"/>
    <circle cx="262" cy="282" r="2" fill="white"/>
    <circle cx="82" cy="282" r="2" fill="white"/>
    <circle cx="182" cy="2" r="2" fill="white"/>
    <circle cx="2" cy="2" r="2" fill="white"/>
    <circle cx="182" cy="182" r="2" fill="white"/>
    <circle cx="2" cy="182" r="2" fill="white"/>
    <circle cx="182" cy="82" r="2" fill="white"/>
    <circle cx="2" cy="82" r="2" fill="white"/>
    <circle cx="182" cy="262" r="2" fill="white"/>
    <circle cx="2" cy="262" r="2" fill="white"/>
    <circle cx="182" cy="42" r="2" fill="white"/>
    <circle cx="2" cy="42" r="2" fill="white"/>
    <circle cx="182" cy="222" r="2" fill="white"/>
    <circle cx="2" cy="222" r="2" fill="white"/>
    <circle cx="182" cy="122" r="2" fill="white"/>
    <circle cx="2" cy="122" r="2" fill="white"/>
    <circle cx="182" cy="302" r="2" fill="white"/>
    <circle cx="2" cy="302" r="2" fill="white"/>
    <circle cx="262" cy="2" r="2" fill="white"/>
    <circle cx="82" cy="2" r="2" fill="white"/>
    <circle cx="262" cy="182" r="2" fill="white"/>
    <circle cx="82" cy="182" r="2" fill="white"/>
    <circle cx="262" cy="82" r="2" fill="white"/>
    <circle cx="82" cy="82" r="2" fill="white"/>
    <circle cx="262" cy="262" r="2" fill="white"/>
    <circle cx="82" cy="262" r="2" fill="white"/>
    <circle cx="262" cy="42" r="2" fill="white"/>
    <circle cx="82" cy="42" r="2" fill="white"/>
    <circle cx="262" cy="222" r="2" fill="white"/>
    <circle cx="82" cy="222" r="2" fill="white"/>
    <circle cx="262" cy="122" r="2" fill="white"/>
    <circle cx="82" cy="122" r="2" fill="white"/>
    <circle cx="262" cy="302" r="2" fill="white"/>
    <circle cx="82" cy="302" r="2" fill="white"/>
    <circle cx="202" cy="162" r="2" fill="white"/>
    <circle cx="22" cy="162" r="2" fill="white"/>
    <circle cx="202" cy="142" r="2" fill="white"/>
    <circle cx="22" cy="142" r="2" fill="white"/>
    <circle cx="202" cy="62" r="2" fill="white"/>
    <circle cx="22" cy="62" r="2" fill="white"/>
    <circle cx="202" cy="242" r="2" fill="white"/>
    <circle cx="22" cy="242" r="2" fill="white"/>
    <circle cx="202" cy="22" r="2" fill="white"/>
    <circle cx="22" cy="22" r="2" fill="white"/>
    <circle cx="202" cy="202" r="2" fill="white"/>
    <circle cx="22" cy="202" r="2" fill="white"/>
    <circle cx="202" cy="102" r="2" fill="white"/>
    <circle cx="22" cy="102" r="2" fill="white"/>
    <circle cx="202" cy="282" r="2" fill="white"/>
    <circle cx="22" cy="282" r="2" fill="white"/>
    <circle cx="282" cy="162" r="2" fill="white"/>
    <circle cx="102" cy="162" r="2" fill="white"/>
    <circle cx="282" cy="142" r="2" fill="white"/>
    <circle cx="102" cy="142" r="2" fill="white"/>
    <circle cx="282" cy="62" r="2" fill="white"/>
    <circle cx="102" cy="62" r="2" fill="white"/>
    <circle cx="282" cy="242" r="2" fill="white"/>
    <circle cx="102" cy="242" r="2" fill="white"/>
    <circle cx="282" cy="22" r="2" fill="white"/>
    <circle cx="102" cy="22" r="2" fill="white"/>
    <circle cx="282" cy="202" r="2" fill="white"/>
    <circle cx="102" cy="202" r="2" fill="white"/>
    <circle cx="282" cy="102" r="2" fill="white"/>
    <circle cx="102" cy="102" r="2" fill="white"/>
    <circle cx="282" cy="282" r="2" fill="white"/>
    <circle cx="102" cy="282" r="2" fill="white"/>
    <circle cx="202" cy="2" r="2" fill="white"/>
    <circle cx="22" cy="2" r="2" fill="white"/>
    <circle cx="202" cy="182" r="2" fill="white"/>
    <circle cx="22" cy="182" r="2" fill="white"/>
    <circle cx="202" cy="82" r="2" fill="white"/>
    <circle cx="22" cy="82" r="2" fill="white"/>
    <circle cx="202" cy="262" r="2" fill="white"/>
    <circle cx="22" cy="262" r="2" fill="white"/>
    <circle cx="202" cy="42" r="2" fill="white"/>
    <circle cx="22" cy="42" r="2" fill="white"/>
    <circle cx="202" cy="222" r="2" fill="white"/>
    <circle cx="22" cy="222" r="2" fill="white"/>
    <circle cx="202" cy="122" r="2" fill="white"/>
    <circle cx="22" cy="122" r="2" fill="white"/>
    <circle cx="202" cy="302" r="2" fill="white"/>
    <circle cx="22" cy="302" r="2" fill="white"/>
    <circle cx="282" cy="2" r="2" fill="white"/>
    <circle cx="102" cy="2" r="2" fill="white"/>
    <circle cx="282" cy="182" r="2" fill="white"/>
    <circle cx="102" cy="182" r="2" fill="white"/>
    <circle cx="282" cy="82" r="2" fill="white"/>
    <circle cx="102" cy="82" r="2" fill="white"/>
    <circle cx="282" cy="262" r="2" fill="white"/>
    <circle cx="102" cy="262" r="2" fill="white"/>
    <circle cx="282" cy="42" r="2" fill="white"/>
    <circle cx="102" cy="42" r="2" fill="white"/>
    <circle cx="282" cy="222" r="2" fill="white"/>
    <circle cx="102" cy="222" r="2" fill="white"/>
    <circle cx="282" cy="122" r="2" fill="white"/>
    <circle cx="102" cy="122" r="2" fill="white"/>
    <circle cx="282" cy="302" r="2" fill="white"/>
    <circle cx="102" cy="302" r="2" fill="white"/>
</svg>
